<svg xmlns="http://www.w3.org/2000/svg" xmlns:xlink="http://www.w3.org/1999/xlink" width="70" zoomAndPan="magnify" viewBox="0 0 52.5 52.499999" height="70" preserveAspectRatio="xMidYMid meet" version="1.0"><defs><clipPath id="1e7156e40e"><path d="M 0 0 L 52.003906 0 L 52.003906 52.003906 L 0 52.003906 Z M 0 0 " clip-rule="nonzero"/></clipPath></defs><path fill="#f4f4ef" d="M 30.492188 18.292969 C 30.492188 18.523438 30.449219 18.75 30.359375 18.964844 C 30.269531 19.179688 30.144531 19.367188 29.980469 19.53125 C 29.816406 19.695312 29.628906 19.824219 29.414062 19.914062 C 29.199219 20.003906 28.976562 20.046875 28.742188 20.046875 C 28.511719 20.050781 28.289062 20.003906 28.074219 19.917969 C 27.859375 19.828125 27.667969 19.703125 27.503906 19.539062 C 27.339844 19.375 27.210938 19.183594 27.125 18.972656 C 27.035156 18.757812 26.988281 18.535156 26.988281 18.300781 C 26.988281 18.070312 27.03125 17.84375 27.121094 17.628906 C 27.207031 17.414062 27.335938 17.226562 27.5 17.0625 C 27.664062 16.898438 27.851562 16.769531 28.066406 16.679688 C 28.28125 16.589844 28.503906 16.546875 28.734375 16.546875 C 28.96875 16.546875 29.191406 16.589844 29.40625 16.679688 C 29.621094 16.769531 29.808594 16.894531 29.972656 17.058594 C 30.136719 17.222656 30.265625 17.410156 30.355469 17.625 C 30.445312 17.839844 30.488281 18.0625 30.492188 18.292969 Z M 30.492188 18.292969 " fill-opacity="1" fill-rule="nonzero"/><path fill="#f4f4ef" d="M 40.410156 11.015625 L 11.058594 11.015625 C 11.027344 11.015625 11.015625 11.027344 11.015625 11.058594 L 11.015625 30.269531 L 20.613281 20.671875 C 20.726562 20.554688 20.859375 20.464844 21.011719 20.402344 C 21.160156 20.339844 21.316406 20.308594 21.480469 20.308594 C 21.644531 20.308594 21.800781 20.339844 21.949219 20.402344 C 22.097656 20.464844 22.230469 20.554688 22.34375 20.671875 L 28.480469 26.808594 L 33.171875 22.125 C 33.285156 22.007812 33.417969 21.917969 33.566406 21.855469 C 33.71875 21.792969 33.871094 21.761719 34.035156 21.761719 C 34.195312 21.761719 34.351562 21.792969 34.5 21.855469 C 34.652344 21.917969 34.78125 22.007812 34.894531 22.125 L 40.449219 27.675781 L 40.449219 11.058594 C 40.453125 11.027344 40.4375 11.015625 40.410156 11.015625 Z M 28.734375 21.222656 C 28.347656 21.222656 27.976562 21.144531 27.617188 20.996094 C 27.257812 20.847656 26.945312 20.636719 26.667969 20.363281 C 26.394531 20.089844 26.183594 19.773438 26.035156 19.414062 C 25.890625 19.054688 25.816406 18.683594 25.816406 18.296875 C 25.816406 17.90625 25.890625 17.535156 26.039062 17.175781 C 26.1875 16.820312 26.398438 16.503906 26.671875 16.230469 C 26.945312 15.957031 27.261719 15.742188 27.621094 15.59375 C 27.976562 15.445312 28.351562 15.371094 28.738281 15.371094 C 29.125 15.371094 29.5 15.445312 29.855469 15.59375 C 30.214844 15.742188 30.53125 15.953125 30.804688 16.226562 C 31.078125 16.5 31.292969 16.816406 31.441406 17.175781 C 31.589844 17.53125 31.664062 17.90625 31.664062 18.292969 C 31.664062 18.679688 31.589844 19.054688 31.441406 19.414062 C 31.292969 19.773438 31.082031 20.089844 30.804688 20.363281 C 30.53125 20.636719 30.214844 20.851562 29.855469 21 C 29.496094 21.148438 29.125 21.222656 28.734375 21.222656 Z M 28.734375 21.222656 " fill-opacity="1" fill-rule="nonzero"/><g clip-path="url(#1e7156e40e)"><path fill="#f4f4ef" d="M 26.25 0 C 25.390625 0 24.53125 0.0429688 23.675781 0.125 C 22.820312 0.210938 21.972656 0.335938 21.128906 0.503906 C 20.285156 0.671875 19.453125 0.878906 18.628906 1.128906 C 17.808594 1.378906 17 1.667969 16.203125 2 C 15.410156 2.328125 14.632812 2.695312 13.875 3.097656 C 13.117188 3.503906 12.382812 3.945312 11.667969 4.425781 C 10.953125 4.902344 10.261719 5.414062 9.597656 5.957031 C 8.933594 6.503906 8.296875 7.082031 7.6875 7.6875 C 7.082031 8.296875 6.503906 8.933594 5.957031 9.597656 C 5.414062 10.261719 4.902344 10.953125 4.425781 11.667969 C 3.945312 12.382812 3.503906 13.117188 3.097656 13.875 C 2.695312 14.632812 2.328125 15.410156 2 16.203125 C 1.667969 17 1.378906 17.808594 1.128906 18.628906 C 0.878906 19.453125 0.671875 20.285156 0.503906 21.128906 C 0.335938 21.972656 0.210938 22.820312 0.125 23.675781 C 0.0429688 24.53125 0 25.390625 0 26.25 C 0 27.109375 0.0429688 27.96875 0.125 28.824219 C 0.210938 29.679688 0.335938 30.527344 0.503906 31.371094 C 0.671875 32.214844 0.878906 33.046875 1.128906 33.871094 C 1.378906 34.691406 1.667969 35.5 2 36.296875 C 2.328125 37.089844 2.695312 37.867188 3.097656 38.625 C 3.503906 39.382812 3.945312 40.117188 4.425781 40.832031 C 4.902344 41.546875 5.414062 42.238281 5.957031 42.902344 C 6.503906 43.566406 7.082031 44.203125 7.6875 44.8125 C 8.296875 45.417969 8.933594 45.996094 9.597656 46.542969 C 10.261719 47.085938 10.953125 47.597656 11.667969 48.074219 C 12.382812 48.554688 13.117188 48.996094 13.875 49.402344 C 14.632812 49.804688 15.410156 50.171875 16.203125 50.5 C 17 50.832031 17.808594 51.121094 18.628906 51.371094 C 19.453125 51.621094 20.285156 51.828125 21.128906 51.996094 C 21.972656 52.164062 22.820312 52.289062 23.675781 52.375 C 24.53125 52.457031 25.390625 52.5 26.25 52.5 C 27.109375 52.5 27.96875 52.457031 28.824219 52.375 C 29.679688 52.289062 30.527344 52.164062 31.371094 51.996094 C 32.214844 51.828125 33.046875 51.621094 33.871094 51.371094 C 34.691406 51.121094 35.5 50.832031 36.296875 50.5 C 37.089844 50.171875 37.867188 49.804688 38.625 49.402344 C 39.382812 48.996094 40.117188 48.554688 40.832031 48.074219 C 41.546875 47.597656 42.238281 47.085938 42.902344 46.542969 C 43.566406 45.996094 44.203125 45.417969 44.8125 44.8125 C 45.417969 44.203125 45.996094 43.566406 46.542969 42.902344 C 47.085938 42.238281 47.597656 41.546875 48.074219 40.832031 C 48.554688 40.117188 48.996094 39.382812 49.402344 38.625 C 49.804688 37.867188 50.171875 37.089844 50.5 36.296875 C 50.832031 35.5 51.121094 34.691406 51.371094 33.871094 C 51.621094 33.046875 51.828125 32.214844 51.996094 31.371094 C 52.164062 30.527344 52.289062 29.679688 52.375 28.824219 C 52.457031 27.96875 52.5 27.109375 52.5 26.25 C 52.5 25.390625 52.457031 24.53125 52.371094 23.675781 C 52.289062 22.820312 52.164062 21.972656 51.996094 21.128906 C 51.828125 20.285156 51.617188 19.453125 51.367188 18.628906 C 51.117188 17.808594 50.828125 17 50.5 16.203125 C 50.171875 15.410156 49.804688 14.632812 49.398438 13.875 C 48.992188 13.117188 48.550781 12.378906 48.074219 11.664062 C 47.597656 10.949219 47.085938 10.261719 46.539062 9.597656 C 45.992188 8.933594 45.417969 8.296875 44.808594 7.6875 C 44.203125 7.082031 43.566406 6.503906 42.902344 5.957031 C 42.234375 5.414062 41.546875 4.902344 40.832031 4.421875 C 40.117188 3.945312 39.378906 3.503906 38.621094 3.097656 C 37.863281 2.695312 37.089844 2.328125 36.292969 1.996094 C 35.5 1.667969 34.691406 1.378906 33.867188 1.128906 C 33.046875 0.878906 32.214844 0.671875 31.371094 0.503906 C 30.527344 0.335938 29.679688 0.210938 28.824219 0.125 C 27.96875 0.0429688 27.109375 0 26.25 0 Z M 32.5 41.621094 L 11.058594 41.621094 C 10.898438 41.621094 10.742188 41.589844 10.59375 41.527344 C 10.445312 41.464844 10.316406 41.378906 10.203125 41.265625 C 10.089844 41.152344 10 41.019531 9.9375 40.871094 C 9.875 40.722656 9.84375 40.570312 9.84375 40.410156 L 9.84375 11.058594 C 9.84375 10.898438 9.875 10.742188 9.9375 10.59375 C 10 10.445312 10.089844 10.316406 10.203125 10.203125 C 10.316406 10.089844 10.445312 10 10.59375 9.9375 C 10.742188 9.875 10.898438 9.84375 11.058594 9.84375 L 40.410156 9.84375 C 40.570312 9.84375 40.722656 9.875 40.871094 9.9375 C 41.019531 10 41.152344 10.089844 41.265625 10.203125 C 41.378906 10.316406 41.464844 10.445312 41.527344 10.59375 C 41.589844 10.742188 41.621094 10.898438 41.621094 11.058594 L 41.621094 32.441406 C 41.621094 32.605469 41.566406 32.742188 41.449219 32.859375 C 41.335938 32.972656 41.199219 33.03125 41.035156 33.03125 C 40.875 33.03125 40.734375 32.972656 40.621094 32.859375 C 40.507812 32.742188 40.449219 32.605469 40.449219 32.441406 L 40.449219 29.335938 L 34.066406 22.953125 C 34.046875 22.933594 34.023438 22.933594 34 22.953125 L 29.308594 27.636719 L 31.867188 30.1875 C 31.984375 30.300781 32.039062 30.441406 32.039062 30.601562 C 32.039062 30.761719 31.984375 30.902344 31.867188 31.015625 C 31.753906 31.128906 31.617188 31.1875 31.453125 31.1875 C 31.292969 31.1875 31.15625 31.128906 31.039062 31.015625 L 21.515625 21.5 C 21.492188 21.46875 21.46875 21.46875 21.441406 21.5 L 11.015625 31.925781 L 11.015625 40.410156 C 11.015625 40.4375 11.027344 40.453125 11.058594 40.449219 L 32.5 40.449219 C 32.664062 40.449219 32.800781 40.507812 32.914062 40.621094 C 33.03125 40.734375 33.085938 40.875 33.085938 41.035156 C 33.085938 41.199219 33.03125 41.335938 32.914062 41.449219 C 32.800781 41.566406 32.664062 41.621094 32.5 41.621094 Z M 42.074219 38.875 L 38.875 38.875 L 38.875 42.074219 C 38.875 42.234375 38.816406 42.375 38.703125 42.488281 C 38.589844 42.601562 38.449219 42.660156 38.289062 42.660156 C 38.125 42.660156 37.988281 42.601562 37.875 42.488281 C 37.757812 42.375 37.703125 42.234375 37.703125 42.074219 L 37.703125 38.875 L 34.503906 38.875 C 34.339844 38.875 34.203125 38.816406 34.085938 38.703125 C 33.972656 38.589844 33.914062 38.449219 33.914062 38.289062 C 33.914062 38.125 33.972656 37.988281 34.085938 37.875 C 34.203125 37.757812 34.339844 37.703125 34.503906 37.703125 L 37.703125 37.703125 L 37.703125 34.503906 C 37.703125 34.339844 37.757812 34.203125 37.875 34.085938 C 37.988281 33.972656 38.125 33.914062 38.289062 33.914062 C 38.449219 33.914062 38.589844 33.972656 38.703125 34.085938 C 38.816406 34.203125 38.875 34.339844 38.875 34.503906 L 38.875 37.703125 L 42.074219 37.703125 C 42.234375 37.703125 42.375 37.757812 42.488281 37.875 C 42.601562 37.988281 42.660156 38.125 42.660156 38.289062 C 42.660156 38.449219 42.601562 38.589844 42.488281 38.703125 C 42.375 38.816406 42.234375 38.875 42.074219 38.875 Z M 42.074219 38.875 " fill-opacity="1" fill-rule="nonzero"/></g></svg>