<svg xmlns="http://www.w3.org/2000/svg" xmlns:xlink="http://www.w3.org/1999/xlink" width="537" zoomAndPan="magnify" viewBox="0 0 402.75 485.999983" height="648" preserveAspectRatio="xMidYMid meet" version="1.0"><defs><filter x="0%" y="0%" width="100%" height="100%" id="a94f90e84b"><feColorMatrix values="0 0 0 0 1 0 0 0 0 1 0 0 0 0 1 0 0 0 1 0" color-interpolation-filters="sRGB"/></filter><clipPath id="11e9383792"><path d="M 104 255 L 402.5 255 L 402.5 485.847656 L 104 485.847656 Z M 104 255 " clip-rule="nonzero"/></clipPath><mask id="8417e2dcb1"><g filter="url(#a94f90e84b)"><rect x="-40.275" width="483.3" fill="#000000" y="-48.599998" height="583.19998" fill-opacity="0.8"/></g></mask><clipPath id="f2f631e1a7"><path d="M 16 28 L 298.5 28 L 298.5 230.847656 L 16 230.847656 Z M 16 28 " clip-rule="nonzero"/></clipPath><clipPath id="180b603008"><path d="M 0.335938 0.113281 L 298.5 0.113281 L 298.5 230.847656 L 0.335938 230.847656 Z M 0.335938 0.113281 " clip-rule="nonzero"/></clipPath><clipPath id="8ce2e92d6c"><path d="M 5 10 L 223 10 L 223 230.847656 L 5 230.847656 Z M 5 10 " clip-rule="nonzero"/></clipPath><clipPath id="f8149a74a6"><path d="M 9 177 L 298.5 177 L 298.5 230.847656 L 9 230.847656 Z M 9 177 " clip-rule="nonzero"/></clipPath><clipPath id="ea58d0a13f"><rect x="0" width="299" y="0" height="231"/></clipPath><clipPath id="d88c2dbf8d"><path d="M 40 208 L 402.5 208 L 402.5 485.847656 L 40 485.847656 Z M 40 208 " clip-rule="nonzero"/></clipPath><clipPath id="0ecd5cd896"><path d="M 354.382812 953.660156 L 40.027344 518.546875 L 469.195312 208.480469 L 783.554688 643.59375 Z M 354.382812 953.660156 " clip-rule="nonzero"/></clipPath><clipPath id="82d5a99856"><path d="M 354.382812 953.660156 L 40.027344 518.546875 L 469.195312 208.480469 L 783.554688 643.59375 Z M 354.382812 953.660156 " clip-rule="nonzero"/></clipPath><mask id="4e6c7f08ac"><g filter="url(#a94f90e84b)"><rect x="-40.275" width="483.3" fill="#000000" y="-48.599998" height="583.19998" fill-opacity="0.8"/></g></mask><clipPath id="13f06f4da2"><path d="M 125 119 L 362.5 119 L 362.5 277.847656 L 125 277.847656 Z M 125 119 " clip-rule="nonzero"/></clipPath><clipPath id="5dad37a31c"><path d="M 314.382812 745.660156 L 0.0273438 310.546875 L 429.195312 0.480469 L 743.554688 435.59375 Z M 314.382812 745.660156 " clip-rule="nonzero"/></clipPath><clipPath id="089432652e"><path d="M 314.382812 745.660156 L 0.0273438 310.546875 L 429.195312 0.480469 L 743.554688 435.59375 Z M 314.382812 745.660156 " clip-rule="nonzero"/></clipPath><clipPath id="8023d622af"><path d="M 227 108 L 362.5 108 L 362.5 277.847656 L 227 277.847656 Z M 227 108 " clip-rule="nonzero"/></clipPath><clipPath id="172eaef79a"><path d="M 314.382812 745.660156 L 0.0273438 310.546875 L 429.195312 0.480469 L 743.554688 435.59375 Z M 314.382812 745.660156 " clip-rule="nonzero"/></clipPath><clipPath id="8b06061ec4"><path d="M 314.382812 745.660156 L 0.0273438 310.546875 L 429.195312 0.480469 L 743.554688 435.59375 Z M 314.382812 745.660156 " clip-rule="nonzero"/></clipPath><clipPath id="f94a3956de"><rect x="0" width="363" y="0" height="278"/></clipPath><clipPath id="987134be44"><path d="M 121 307 L 402.5 307 L 402.5 485.847656 L 121 485.847656 Z M 121 307 " clip-rule="nonzero"/></clipPath><clipPath id="6e59c168e1"><path d="M 641.613281 951.820312 L 121.089844 820.675781 L 250.445312 307.257812 L 770.96875 438.402344 Z M 641.613281 951.820312 " clip-rule="nonzero"/></clipPath><clipPath id="77803d7900"><path d="M 641.613281 951.820312 L 121.089844 820.675781 L 250.445312 307.257812 L 770.96875 438.402344 Z M 641.613281 951.820312 " clip-rule="nonzero"/></clipPath><mask id="2fae8a5f0c"><g filter="url(#a94f90e84b)"><rect x="-40.275" width="483.3" fill="#000000" y="-48.599998" height="583.19998" fill-opacity="0.8"/></g></mask><clipPath id="15107ea6e8"><path d="M 60 65 L 281.5 65 L 281.5 178.847656 L 60 178.847656 Z M 60 65 " clip-rule="nonzero"/></clipPath><clipPath id="0692f98a26"><path d="M 520.613281 644.820312 L 0.0898438 513.675781 L 129.445312 0.257812 L 649.96875 131.402344 Z M 520.613281 644.820312 " clip-rule="nonzero"/></clipPath><clipPath id="19633c5356"><path d="M 520.613281 644.820312 L 0.0898438 513.675781 L 129.445312 0.257812 L 649.96875 131.402344 Z M 520.613281 644.820312 " clip-rule="nonzero"/></clipPath><clipPath id="24e75e72f8"><path d="M 122 145 L 281.5 145 L 281.5 178.847656 L 122 178.847656 Z M 122 145 " clip-rule="nonzero"/></clipPath><clipPath id="ad0bac7373"><path d="M 520.613281 644.820312 L 0.0898438 513.675781 L 129.445312 0.257812 L 649.96875 131.402344 Z M 520.613281 644.820312 " clip-rule="nonzero"/></clipPath><clipPath id="93323b30e7"><path d="M 520.613281 644.820312 L 0.0898438 513.675781 L 129.445312 0.257812 L 649.96875 131.402344 Z M 520.613281 644.820312 " clip-rule="nonzero"/></clipPath><clipPath id="3a72a78ba5"><path d="M 80 57 L 281.5 57 L 281.5 178.847656 L 80 178.847656 Z M 80 57 " clip-rule="nonzero"/></clipPath><clipPath id="c72778d0c8"><path d="M 520.613281 644.820312 L 0.0898438 513.675781 L 129.445312 0.257812 L 649.96875 131.402344 Z M 520.613281 644.820312 " clip-rule="nonzero"/></clipPath><clipPath id="59fd4badc9"><path d="M 520.613281 644.820312 L 0.0898438 513.675781 L 129.445312 0.257812 L 649.96875 131.402344 Z M 520.613281 644.820312 " clip-rule="nonzero"/></clipPath><clipPath id="41929cfabf"><rect x="0" width="282" y="0" height="179"/></clipPath><clipPath id="903d3bf9b3"><path d="M 147 342 L 402.5 342 L 402.5 485.847656 L 147 485.847656 Z M 147 342 " clip-rule="nonzero"/></clipPath><clipPath id="f6e83d8a5f"><path d="M 145.3125 510.089844 L 655.035156 341.789062 L 821.042969 844.550781 L 311.320312 1012.855469 Z M 145.3125 510.089844 " clip-rule="nonzero"/></clipPath><clipPath id="da34dcfd69"><path d="M 145.3125 510.089844 L 655.035156 341.789062 L 821.042969 844.550781 L 311.320312 1012.855469 Z M 145.3125 510.089844 " clip-rule="nonzero"/></clipPath><mask id="380666b3bb"><g filter="url(#a94f90e84b)"><rect x="-40.275" width="483.3" fill="#000000" y="-48.599998" height="583.19998" fill-opacity="0.8"/></g></mask><clipPath id="853e9e0583"><path d="M 86 95 L 255.5 95 L 255.5 143.847656 L 86 143.847656 Z M 86 95 " clip-rule="nonzero"/></clipPath><clipPath id="b45556d0f6"><path d="M -1.6875 168.089844 L 508.035156 -0.210938 L 674.042969 502.550781 L 164.320312 670.855469 Z M -1.6875 168.089844 " clip-rule="nonzero"/></clipPath><clipPath id="d728ba0f78"><path d="M -1.6875 168.089844 L 508.035156 -0.210938 L 674.042969 502.550781 L 164.320312 670.855469 Z M -1.6875 168.089844 " clip-rule="nonzero"/></clipPath><clipPath id="8c6e37a6ed"><path d="M 71 69 L 255.5 69 L 255.5 143.847656 L 71 143.847656 Z M 71 69 " clip-rule="nonzero"/></clipPath><clipPath id="2f292d9b43"><path d="M -1.6875 168.089844 L 508.035156 -0.210938 L 674.042969 502.550781 L 164.320312 670.855469 Z M -1.6875 168.089844 " clip-rule="nonzero"/></clipPath><clipPath id="bc66c0be30"><path d="M -1.6875 168.089844 L 508.035156 -0.210938 L 674.042969 502.550781 L 164.320312 670.855469 Z M -1.6875 168.089844 " clip-rule="nonzero"/></clipPath><clipPath id="0d9cfa659b"><path d="M 75 110 L 207 110 L 207 143.847656 L 75 143.847656 Z M 75 110 " clip-rule="nonzero"/></clipPath><clipPath id="78302f1ee3"><path d="M -1.6875 168.089844 L 508.035156 -0.210938 L 674.042969 502.550781 L 164.320312 670.855469 Z M -1.6875 168.089844 " clip-rule="nonzero"/></clipPath><clipPath id="116579f162"><path d="M -1.6875 168.089844 L 508.035156 -0.210938 L 674.042969 502.550781 L 164.320312 670.855469 Z M -1.6875 168.089844 " clip-rule="nonzero"/></clipPath><clipPath id="c0561394c1"><rect x="0" width="256" y="0" height="144"/></clipPath></defs><g clip-path="url(#11e9383792)"><g mask="url(#8417e2dcb1)"><g transform="matrix(1, 0, 0, 1, 104, 255)"><g clip-path="url(#ea58d0a13f)"><g clip-path="url(#f2f631e1a7)"><path fill="#545454" d="M 511.96875 215.242188 C 501.789062 184.933594 485.949219 156.664062 465.355469 132.460938 C 444.765625 108.035156 419.421875 87.679688 390.914062 72.976562 C 362.402344 58.050781 330.722656 49.003906 298.140625 46.515625 C 265.554688 44.027344 232.292969 47.871094 201.066406 58.953125 C 201.066406 59.179688 201.066406 59.40625 200.613281 59.859375 C 199.707031 60.761719 197.898438 61.894531 195.636719 62.800781 C 193.375 63.929688 190.882812 64.835938 188.394531 65.738281 C 174.59375 70.714844 161.242188 77.273438 148.34375 84.738281 C 125.265625 99.890625 105.351562 119.34375 89.058594 141.28125 C 92.226562 136.757812 95.847656 132.6875 99.242188 128.390625 C 102.863281 124.320312 106.484375 120.25 110.328125 116.402344 C 117.796875 108.488281 126.167969 101.476562 134.765625 95.144531 C 137.257812 93.105469 139.746094 91.523438 141.554688 90.617188 C 143.367188 89.714844 144.496094 89.488281 144.722656 90.167969 C 144.722656 90.84375 143.820312 91.976562 142.007812 93.785156 C 140.425781 95.59375 137.933594 97.628906 135.445312 99.667969 C 112.820312 117.535156 92.679688 141.28125 77.972656 167.066406 C 63.039062 192.851562 53.535156 220.671875 47.425781 246.003906 C 43.125 279.027344 46.292969 312.726562 56.023438 343.710938 C 65.753906 374.699219 82.269531 403.199219 103.316406 426.496094 C 124.359375 449.789062 150.15625 468.335938 177.761719 480.550781 C 205.367188 492.765625 235.007812 498.871094 263.746094 499.097656 C 266.007812 499.097656 268.722656 499.324219 269.855469 499.777344 C 271.4375 500.226562 270.984375 500.679688 268.949219 500.679688 C 238.855469 502.039062 206.949219 496.835938 176.402344 483.945312 C 161.242188 477.382812 146.308594 469.242188 132.503906 459.0625 C 118.703125 448.886719 105.578125 436.898438 94.039062 423.328125 C 82.496094 409.757812 72.316406 394.828125 64.167969 378.316406 C 56.023438 362.035156 49.460938 344.617188 45.164062 326.296875 C 41.089844 307.976562 39.050781 289.203125 39.277344 269.980469 L 39.277344 266.359375 L 39.503906 262.742188 L 39.957031 255.503906 C 40.410156 250.753906 40.863281 246.003906 41.542969 241.253906 C 43.125 231.753906 44.710938 222.253906 47.425781 212.980469 L 49.234375 206.195312 L 51.496094 199.410156 C 52.855469 194.886719 54.664062 190.589844 56.476562 186.292969 C 44.9375 210.71875 37.46875 237.859375 34.980469 266.585938 C 35.660156 269.527344 35.886719 274.277344 35.886719 279.929688 C 36.335938 293.5 37.921875 306.847656 40.410156 319.964844 C 40.410156 319.285156 40.636719 319.058594 40.863281 318.832031 C 41.769531 318.832031 43.351562 323.582031 44.484375 329.238281 C 51.496094 362.035156 65.527344 393.019531 85.214844 420.160156 C 85.664062 420.839844 86.117188 421.519531 86.570312 421.96875 C 111.914062 454.765625 145.628906 481.003906 183.417969 496.835938 C 221.203125 513.121094 262.839844 519 303.34375 514.476562 C 305.832031 514.25 308.320312 513.800781 310.808594 513.574219 C 313.300781 513.121094 315.789062 512.894531 318.277344 512.441406 L 325.746094 510.859375 L 329.589844 510.179688 L 333.210938 509.277344 L 340.679688 507.464844 L 347.917969 505.203125 C 352.898438 503.847656 357.421875 501.8125 362.402344 500.226562 C 371.90625 496.382812 381.183594 492.539062 390.007812 487.5625 C 394.53125 485.300781 398.832031 482.585938 403.132812 480.097656 C 405.394531 478.742188 407.429688 477.382812 409.46875 476.027344 C 411.503906 474.671875 413.765625 473.3125 415.800781 471.730469 C 448.839844 448.207031 475.3125 416.089844 492.511719 379.675781 C 493.1875 377.414062 494.546875 374.472656 495.679688 373.117188 C 496.808594 371.53125 497.261719 371.984375 496.582031 374.246094 C 497.035156 374.246094 497.714844 374.019531 497.488281 374.699219 C 487.078125 402.972656 471.464844 428.980469 450.875 451.824219 C 430.058594 474.445312 404.035156 493.667969 372.808594 506.789062 C 351.3125 515.835938 328.6875 521.714844 305.605469 524.429688 C 329.589844 523.074219 352.445312 518.773438 372.808594 513.121094 C 401.320312 501.585938 427.796875 484.621094 450.195312 463.8125 C 472.597656 443.003906 491.378906 418.804688 505.859375 392.792969 L 504.277344 394.601562 C 505.40625 392.339844 506.765625 390.078125 507.898438 388.496094 C 509.027344 386.914062 509.707031 385.78125 510.160156 386.007812 C 510.613281 386.007812 510.613281 386.914062 510.160156 388.722656 C 509.707031 390.304688 508.800781 392.566406 507.445312 395.054688 C 501.5625 407.722656 494.546875 420.160156 486.402344 431.921875 C 478.253906 443.683594 468.976562 454.539062 459.019531 464.945312 C 448.839844 475.121094 437.976562 484.621094 426.210938 492.992188 C 414.445312 501.359375 401.773438 508.824219 388.648438 515.15625 C 335.925781 540.714844 273.699219 546.820312 215.773438 532.570312 C 186.8125 525.335938 158.980469 513.121094 134.089844 496.382812 C 109.199219 479.644531 87.023438 458.613281 68.921875 434.410156 C 50.820312 410.210938 37.015625 382.617188 28.191406 353.664062 C 19.140625 324.714844 15.746094 293.953125 16.878906 263.417969 C 18.914062 215.015625 35.207031 167.519531 62.585938 127.9375 C 89.738281 88.132812 128.207031 56.464844 172.328125 36.789062 C 178.890625 33.621094 185.226562 32.039062 189.753906 30.90625 C 194.277344 30.003906 197.445312 30.003906 197.671875 31.132812 C 197.898438 33.167969 187.488281 38.371094 174.816406 44.253906 C 132.730469 63.25 96.527344 94.011719 70.730469 131.785156 C 44.710938 169.554688 29.097656 214.113281 26.382812 260.027344 C 25.25 280.15625 25.929688 300.511719 29.550781 320.191406 C 32.941406 339.867188 38.828125 359.320312 46.519531 377.640625 C 34.753906 348.6875 29.097656 317.703125 29.097656 286.941406 C 28.417969 275.179688 28.871094 263.417969 30 251.660156 C 31.132812 239.898438 33.394531 228.136719 36.109375 216.375 C 39.277344 204.839844 42.898438 193.304688 47.652344 182.222656 C 52.402344 171.140625 57.832031 160.28125 64.167969 149.878906 C 79.328125 124.546875 98.5625 102.832031 120.511719 85.191406 C 142.460938 67.550781 167.125 53.527344 193.597656 44.027344 C 219.847656 34.527344 247.679688 29.097656 276.191406 28.195312 C 290.445312 27.742188 304.699219 28.421875 318.957031 30.230469 C 333.210938 32.039062 347.695312 35.207031 361.722656 39.277344 C 389.328125 47.417969 413.765625 59.40625 435.714844 73.429688 C 446.574219 80.667969 456.757812 88.355469 466.488281 96.726562 C 475.992188 105.09375 485.042969 114.140625 493.1875 123.640625 C 501.5625 133.140625 509.027344 143.320312 515.816406 153.949219 C 522.605469 164.578125 528.714844 176.113281 534.144531 187.875 C 539.347656 199.863281 543.875 212.304688 547.269531 225.421875 C 550.664062 238.539062 553.152344 252.109375 554.511719 266.359375 C 554.960938 271.335938 554.734375 276.988281 554.058594 278.800781 C 553.832031 279.703125 553.378906 279.703125 552.925781 278.800781 C 552.472656 277.894531 552.246094 276.085938 552.019531 273.597656 C 547.496094 219.089844 526.453125 169.78125 494.09375 130.199219 C 486.175781 120.25 477.125 110.976562 467.621094 102.378906 C 462.867188 97.855469 457.890625 94.011719 452.910156 89.714844 C 450.421875 87.679688 447.707031 85.871094 445.21875 83.832031 C 442.730469 81.796875 439.789062 80.214844 437.296875 78.179688 C 426.4375 70.941406 415.125 64.15625 403.132812 58.5 C 391.136719 52.847656 378.46875 47.871094 365.570312 44.027344 C 337.738281 35.65625 309.226562 32.039062 280.941406 32.492188 C 252.65625 33.167969 224.824219 38.144531 198.351562 47.644531 C 171.875 57.144531 146.988281 70.941406 124.8125 88.808594 C 102.636719 106.679688 83.402344 128.390625 68.242188 153.269531 C 64.167969 160.054688 60.324219 166.839844 56.929688 173.851562 C 63.039062 162.542969 69.828125 151.6875 77.519531 141.734375 C 85.214844 131.785156 93.585938 122.511719 102.410156 113.914062 C 135.898438 79.085938 179.117188 54.882812 225.503906 44.480469 C 271.890625 34.074219 320.992188 37.242188 366.023438 53.976562 C 383.445312 60.539062 400.191406 68.679688 415.578125 78.632812 C 431.1875 88.582031 445.445312 100.34375 458.34375 113.238281 C 461.738281 116.402344 464.679688 120.023438 467.847656 123.414062 C 471.015625 126.808594 473.730469 130.425781 476.671875 134.046875 C 482.328125 141.28125 487.757812 148.972656 492.511719 156.890625 C 502.015625 172.722656 509.933594 189.683594 515.589844 207.78125 C 516.949219 212.304688 518.304688 216.828125 518.53125 220.445312 C 518.984375 224.0625 518.984375 226.777344 518.304688 227.910156 C 517.851562 228.8125 516.722656 227.910156 515.589844 225.648438 C 514.683594 223.386719 513.328125 219.765625 511.96875 215.242188 Z M 180.703125 508.824219 C 164.636719 502.714844 149.25 494.800781 134.765625 485.300781 C 162.597656 504.75 194.503906 518.546875 227.765625 525.558594 C 261.03125 532.570312 295.875 532.796875 329.363281 526.011719 C 304.699219 529.859375 279.132812 530.535156 253.789062 527.820312 C 228.671875 524.882812 203.78125 518.546875 180.703125 508.824219 Z M 180.703125 508.824219 " fill-opacity="1" fill-rule="nonzero"/></g><g clip-path="url(#180b603008)"><path fill="#545454" d="M 118.023438 497.515625 C 91.546875 479.871094 67.5625 456.800781 48.554688 429.433594 C 29.773438 402.066406 15.519531 370.402344 8.054688 336.925781 C 0.585938 303.453125 -0.546875 268.167969 5.109375 233.5625 C 10.769531 198.957031 23.441406 165.257812 41.996094 135.402344 C 72.089844 86.546875 116.4375 49.226562 166.898438 26.835938 C 170.066406 25.480469 173.234375 23.894531 176.402344 22.765625 L 186.132812 19.148438 C 192.695312 16.886719 199.257812 14.625 205.816406 13.039062 C 212.378906 11.003906 219.167969 9.648438 225.957031 8.289062 C 232.746094 7.160156 239.535156 5.800781 246.546875 5.125 C 253.335938 4.21875 260.351562 3.765625 267.367188 3.3125 C 270.757812 3.089844 274.378906 3.089844 277.773438 3.089844 C 281.167969 2.863281 284.789062 3.089844 288.183594 3.089844 C 291.578125 3.3125 295.199219 3.089844 298.589844 3.3125 C 301.984375 3.539062 305.605469 3.765625 309 3.992188 C 312.394531 4.21875 316.015625 4.671875 319.410156 5.125 C 321.21875 5.351562 322.804688 5.574219 324.613281 5.800781 L 329.816406 6.707031 C 348.144531 9.648438 366.25 14.398438 383.21875 20.503906 C 400.414062 26.609375 416.480469 34.074219 431.640625 42.441406 C 434.132812 43.800781 435.941406 44.480469 435.261719 43.574219 C 434.355469 42.441406 431.867188 40.632812 428.925781 39.050781 C 397.246094 21.410156 362.402344 9.421875 326.195312 3.992188 C 289.992188 -1.433594 252.882812 -0.078125 216.679688 8.0625 C 180.703125 16.207031 146.082031 31.585938 115.761719 53.300781 C 85.890625 74.335938 59.871094 101.929688 40.636719 133.820312 C 22.082031 164.128906 9.410156 198.054688 3.980469 233.113281 C -1.675781 268.167969 -0.546875 303.90625 7.148438 338.058594 C 14.839844 372.210938 29.324219 404.328125 49.007812 431.921875 C 68.46875 459.515625 93.132812 482.8125 120.285156 500.453125 C 121.644531 501.359375 122.773438 501.585938 122.324219 500.90625 C 121.417969 500.003906 119.378906 498.417969 118.023438 497.515625 Z M 118.023438 497.515625 " fill-opacity="1" fill-rule="nonzero"/></g><g clip-path="url(#8ce2e92d6c)"><path fill="#545454" d="M 217.8125 10.550781 C 198.578125 15.300781 179.796875 22.3125 161.921875 31.132812 C 144.269531 39.957031 127.300781 50.585938 111.914062 63.023438 C 96.300781 75.238281 81.820312 89.261719 69.148438 104.414062 C 56.25 119.796875 44.9375 136.535156 35.207031 154.402344 C 24.570312 173.625 16.878906 194.207031 11.898438 215.46875 C 6.921875 236.730469 4.433594 258.894531 5.5625 281.738281 C 6.015625 296.894531 8.277344 311.371094 11.21875 325.617188 C 14.164062 339.640625 18.234375 353.210938 22.988281 366.332031 C 25.25 372.890625 28.191406 379.449219 30.90625 385.78125 C 32.492188 388.949219 33.847656 392.113281 35.433594 395.28125 C 37.015625 398.449219 38.601562 401.613281 40.410156 404.78125 C 47.199219 417.222656 54.664062 429.433594 63.492188 441.421875 C 64.621094 443.003906 65.980469 444.363281 66.660156 444.589844 C 66.882812 444.363281 66.207031 443.230469 65.074219 441.648438 C 46.519531 415.636719 32.039062 387.816406 22.082031 358.414062 C 12.351562 329.011719 7.375 297.796875 8.054688 265.453125 C 8.503906 250.527344 10.316406 235.597656 13.257812 220.898438 C 16.199219 206.648438 20.496094 192.398438 25.929688 178.601562 C 36.789062 151.007812 52.402344 125.675781 71.183594 103.285156 C 109.425781 58.726562 161.015625 26.609375 218.488281 11.683594 C 220.980469 11.003906 222.335938 10.550781 222.335938 10.097656 C 222.109375 9.875 220.074219 10.097656 217.8125 10.550781 Z M 217.8125 10.550781 " fill-opacity="1" fill-rule="nonzero"/></g><g clip-path="url(#f8149a74a6)"><path fill="#545454" d="M 277.546875 541.617188 C 257.183594 541.394531 236.816406 538.679688 216.90625 533.703125 C 197.21875 528.726562 177.984375 521.261719 159.882812 511.988281 C 141.78125 502.714844 125.039062 491.179688 109.425781 478.289062 C 94.039062 465.398438 80.007812 450.695312 67.5625 434.863281 C 45.164062 403.425781 29.550781 367.6875 21.628906 330.140625 C 20.722656 324.714844 19.140625 320.417969 18.460938 320.644531 C 17.554688 320.644531 17.78125 325.390625 18.6875 330.820312 C 22.308594 350.046875 28.191406 368.820312 35.886719 386.6875 C 35.433594 386.234375 34.980469 386.234375 34.980469 386.460938 C 6.921875 323.582031 4.433594 249.621094 28.417969 184.484375 C 29.773438 180.863281 30.453125 178.148438 30 177.925781 C 29.550781 177.699219 27.964844 180.410156 26.609375 184.03125 C 13.9375 217.957031 8.503906 254.597656 10.316406 290.5625 C 12.125 326.523438 21.402344 362.035156 37.242188 394.152344 C 38.148438 396.636719 39.503906 399.351562 41.089844 402.292969 C 48.105469 415.636719 56.25 428.304688 65.527344 440.066406 C 74.578125 451.824219 84.761719 462.683594 95.621094 472.859375 C 117.34375 492.992188 142.460938 509.5 170.066406 521.714844 C 189.753906 530.308594 210.117188 536.871094 230.707031 540.941406 C 251.527344 545.011719 272.34375 546.59375 293.386719 546.144531 C 314.429688 545.691406 335.25 542.523438 355.386719 536.871094 C 375.75 531.214844 395.4375 523.296875 413.765625 512.894531 C 442.957031 496.382812 467.847656 473.539062 488.890625 447.300781 C 497.714844 436.445312 506.085938 424.457031 513.101562 412.472656 C 516.722656 406.363281 519.664062 400.257812 522.605469 394.152344 C 525.320312 387.816406 527.808594 381.710938 529.847656 375.605469 C 540.707031 341.675781 542.515625 309.558594 539.347656 279.703125 C 539.125 277.894531 538.898438 277.667969 538.671875 279.027344 C 538.445312 280.15625 538.21875 282.644531 538.445312 284 C 539.800781 298.929688 539.800781 314.761719 537.765625 330.820312 C 535.957031 346.652344 532.5625 362.710938 528.261719 377.640625 C 516.949219 405.910156 500.882812 432.148438 481.195312 454.992188 C 461.285156 477.835938 437.976562 497.289062 411.957031 512.894531 C 401.546875 518.324219 390.6875 523.074219 379.824219 526.691406 C 368.964844 530.535156 357.875 533.25 346.789062 535.738281 C 324.160156 539.808594 301.308594 542.070312 277.546875 541.617188 Z M 277.546875 541.617188 " fill-opacity="1" fill-rule="nonzero"/></g></g></g></g></g><g clip-path="url(#d88c2dbf8d)"><g clip-path="url(#0ecd5cd896)"><g clip-path="url(#82d5a99856)"><g mask="url(#4e6c7f08ac)"><g transform="matrix(1, 0, 0, 1, 40, 208)"><g clip-path="url(#f94a3956de)"><g clip-path="url(#13f06f4da2)"><g clip-path="url(#5dad37a31c)"><g clip-path="url(#089432652e)"><path fill="#545454" d="M 193.574219 222.011719 C 175.652344 247.066406 162.519531 275.390625 155.242188 305.128906 C 147.789062 334.996094 146.199219 366.28125 150.8125 396.847656 C 155.25 427.542969 166.0625 457.398438 182.511719 484.257812 C 198.960938 511.117188 220.738281 534.933594 247.019531 553.078125 C 247.195312 552.949219 247.371094 552.824219 247.980469 552.921875 C 249.199219 553.117188 251.101562 553.894531 253.085938 555.152344 C 255.246094 556.28125 257.359375 557.714844 259.46875 559.148438 C 271.144531 567.125 283.800781 573.855469 296.910156 579.722656 C 321.769531 589.203125 348.199219 593.785156 374.527344 594.136719 C 369.207031 594.214844 363.984375 593.683594 358.710938 593.457031 C 353.488281 592.925781 348.265625 592.390625 343.09375 591.554688 C 332.695312 590.1875 322.496094 587.601562 312.699219 584.457031 C 309.703125 583.660156 307.0625 582.609375 305.335938 581.707031 C 303.605469 580.804688 302.789062 580.046875 303.191406 579.488281 C 303.722656 579.105469 305.117188 579.171875 307.550781 579.566406 C 309.859375 579.785156 312.851562 580.578125 315.847656 581.375 C 342.570312 588.972656 372.484375 591.308594 400.917969 588.253906 C 429.480469 585.375 456.570312 577.105469 479.796875 567.585938 C 508.011719 552.316406 532.539062 530.828125 551.242188 505.746094 C 569.945312 480.664062 582.875 451.679688 589.191406 422.097656 C 595.503906 392.515625 595.425781 361.898438 589.382812 333.441406 C 583.335938 304.984375 571.375 278.378906 555.332031 255.800781 C 554.054688 254.035156 552.699219 251.785156 552.410156 250.644531 C 551.871094 249.152344 552.480469 249.25 553.628906 250.84375 C 571.675781 273.589844 585.621094 301.449219 592.796875 332.589844 C 596.230469 348.132812 598.304688 364.394531 598.148438 380.917969 C 597.988281 397.445312 596.035156 414.460938 591.953125 431.132812 C 587.871094 447.804688 581.960938 464.179688 573.667969 479.859375 C 565.546875 495.410156 555.652344 510.363281 543.773438 524.054688 C 531.765625 537.574219 518.257812 549.753906 503.117188 560.425781 L 500.292969 562.464844 L 497.339844 564.332031 L 491.429688 568.0625 C 487.46875 570.386719 483.503906 572.714844 479.410156 574.863281 C 471.097656 578.984375 462.785156 583.105469 454.011719 586.214844 L 447.691406 588.628906 L 441.117188 590.691406 C 436.820312 592.179688 432.441406 593.191406 428.0625 594.203125 C 453.652344 589.4375 479.058594 579.957031 502.894531 565.699219 C 504.808594 563.507812 508.390625 560.652344 512.804688 557.460938 C 523.144531 549.453125 532.671875 540.6875 541.511719 531.339844 C 540.980469 531.722656 540.675781 531.675781 540.371094 531.625 C 539.863281 530.917969 542.675781 527 546.453125 522.929688 C 568.101562 498.945312 584.378906 470.503906 594.460938 439.8125 C 594.738281 439.078125 595.011719 438.339844 595.109375 437.730469 C 606.414062 399.429688 607.871094 358.289062 598.90625 319.835938 C 590.292969 281.125 571.382812 245.28125 544.988281 216.1875 C 543.40625 214.371094 541.648438 212.683594 540.070312 210.867188 C 538.308594 209.175781 536.730469 207.359375 534.96875 205.667969 L 529.519531 200.730469 L 526.820312 198.105469 L 524.070312 195.789062 L 518.441406 190.976562 L 512.585938 186.59375 C 508.71875 183.472656 504.574219 181.085938 500.527344 178.089844 C 492.160156 172.832031 483.921875 167.753906 475.054688 163.667969 C 470.734375 161.40625 466.191406 159.578125 461.820312 157.625 C 459.484375 156.621094 457.273438 155.796875 455.066406 154.972656 C 452.855469 154.144531 450.519531 153.144531 448.132812 152.445312 C 411.117188 139.90625 371.097656 137.34375 332.953125 144.449219 C 330.804688 145.195312 327.742188 145.792969 326.046875 145.675781 C 324.171875 145.683594 324.269531 145.078125 326.417969 144.332031 C 326.160156 143.976562 325.601562 143.574219 326.257812 143.367188 C 354.210938 135.550781 383.335938 133.074219 412.796875 136.273438 C 442.207031 139.777344 471.90625 149.261719 499.773438 166.257812 C 518.972656 177.945312 536.335938 192.304688 551.484375 208.808594 C 536.886719 190.832031 520.628906 175.402344 504.71875 162.683594 C 479.621094 146.917969 451.429688 135.804688 422.539062 130.042969 C 393.644531 124.28125 364.148438 123.261719 335.664062 126.621094 L 337.96875 126.835938 C 335.566406 127.230469 333.03125 127.445312 331.15625 127.453125 C 329.285156 127.460938 328.015625 127.570312 327.9375 127.089844 C 327.683594 126.734375 328.390625 126.226562 330.058594 125.558594 C 331.550781 125.019531 333.828125 124.449219 336.535156 124.105469 C 349.746094 121.558594 363.417969 120.019531 377.203125 119.75 C 390.984375 119.476562 404.695312 120.601562 418.441406 122.507812 C 432.136719 124.722656 445.683594 127.847656 458.859375 132.320312 C 472.035156 136.792969 485.015625 142.480469 497.371094 149.160156 C 547.085938 175.929688 586.976562 221.101562 608.546875 274.394531 C 619.242188 301.105469 625.414062 329.738281 626.394531 358.628906 C 627.375 387.515625 623.464844 416.707031 614.785156 444.503906 C 606.105469 472.296875 592.347656 498.648438 574.722656 521.875 C 557.226562 545.277344 535.121094 565.285156 510.640625 581.625 C 471.695312 607.339844 425.410156 621.410156 379.050781 622.347656 C 332.640625 623.59375 286.199219 611.40625 245.929688 588.035156 C 239.753906 584.691406 234.941406 580.636719 231.503906 577.738281 C 228.242188 574.714844 226.457031 572.238281 227.210938 571.425781 C 228.671875 570.097656 238.609375 575.296875 250.355469 581.878906 C 288.945312 604.039062 333.398438 614.972656 377.453125 613.816406 C 421.636719 612.835938 465.242188 599.898438 502.625 576.117188 C 518.984375 565.644531 534.496094 553.628906 547.816406 539.699219 C 561.265625 525.945312 573.136719 510.375 583.097656 494.03125 C 567.132812 519.554688 546.128906 541.457031 522.109375 558.808594 C 513.308594 565.976562 503.871094 572.257812 494.046875 578.007812 C 484.226562 583.757812 473.765625 588.628906 463.046875 593.140625 C 452.253906 597.171875 441.203125 600.851562 429.867188 603.390625 C 418.53125 605.933594 406.988281 607.816406 395.285156 608.734375 C 366.949219 611.179688 339.136719 608.40625 312.972656 601.210938 C 286.808594 594.015625 261.9375 582.65625 239.578125 567.332031 C 217.34375 552.1875 197.394531 533.503906 180.597656 511.742188 C 172.195312 500.859375 164.679688 489.339844 158.046875 477.179688 C 151.414062 465.023438 145.710938 451.921875 140.972656 438.664062 C 131.75 412.503906 127.316406 386.648438 125.878906 361.589844 C 125.398438 349.023438 125.65625 336.730469 126.699219 324.40625 C 127.871094 312.261719 129.824219 300.085938 132.644531 288.363281 C 135.335938 276.460938 139.070312 264.886719 143.539062 253.585938 C 148.007812 242.285156 153.566406 231.003906 159.6875 220.128906 C 166.109375 209.296875 173.269531 198.746094 181.597656 188.691406 C 189.925781 178.640625 199.117188 169.039062 209.476562 159.941406 C 213.105469 156.78125 217.648438 153.765625 219.445312 153.277344 C 220.28125 152.941406 220.535156 153.296875 220.085938 154.160156 C 219.632812 155.023438 218.347656 156.222656 216.53125 157.800781 C 176.523438 192.089844 149.898438 236.347656 137.257812 283.957031 C 133.953125 295.757812 131.824219 308.058594 130.476562 320.332031 C 129.625 326.597656 129.433594 332.65625 128.886719 338.96875 C 128.703125 342.0625 128.820312 345.203125 128.636719 348.296875 C 128.453125 351.390625 128.875 354.582031 128.691406 357.675781 C 129.171875 370.242188 130.257812 382.910156 132.613281 395.46875 C 134.964844 408.027344 138.234375 420.734375 142.511719 432.980469 C 151.683594 459.445312 164.953125 483.761719 181.269531 505.605469 C 197.765625 527.320312 217.359375 546.253906 239.71875 561.578125 C 262.082031 576.902344 286.902344 588.566406 313.371094 595.808594 C 339.839844 603.054688 367.652344 605.828125 395.636719 603.636719 C 403.234375 602.992188 410.703125 602.167969 418.09375 600.867188 C 405.816406 602.472656 393.507812 603.292969 381.394531 602.898438 C 369.28125 602.5 357.3125 601.191406 345.621094 599.148438 C 299.519531 592.632812 256.226562 572.523438 221.921875 542.152344 C 187.613281 511.78125 162.371094 471.632812 150.027344 427.011719 C 145.3125 409.699219 142.21875 392.027344 141.304688 374.390625 C 140.265625 356.578125 141.402344 338.804688 144.1875 321.457031 C 144.746094 317.019531 145.910156 312.679688 146.773438 308.289062 C 147.632812 303.902344 148.925781 299.738281 150.09375 295.398438 C 152.550781 286.894531 155.492188 278.3125 158.992188 270.136719 C 165.988281 253.78125 174.765625 238.023438 185.703125 223.394531 C 188.46875 219.78125 191.234375 216.167969 193.929688 213.949219 C 196.5 211.554688 198.621094 210.023438 199.886719 209.917969 C 200.847656 209.761719 200.78125 211.15625 199.652344 213.3125 C 198.398438 215.296875 196.339844 218.398438 193.574219 222.011719 Z M 609.796875 315.191406 C 614.097656 331.191406 616.601562 347.675781 617.355469 364.351562 C 616.835938 331.632812 609.601562 298.921875 596.300781 268.980469 C 583.003906 239.039062 563.511719 211.6875 539.308594 189.351562 C 556.234375 206.453125 571.195312 226.042969 583.378906 247.375 C 595.261719 268.65625 604.363281 291.675781 609.796875 315.191406 Z M 609.796875 315.191406 " fill-opacity="1" fill-rule="nonzero"/></g></g></g><g clip-path="url(#8023d622af)"><g clip-path="url(#172eaef79a)"><g clip-path="url(#8b06061ec4)"><path fill="#545454" d="M 580.742188 221.03125 C 592.0625 237.066406 601.4375 254.507812 608.789062 272.871094 C 616.015625 291.058594 621.042969 310.296875 624.019531 329.671875 C 626.996094 349.042969 627.441406 368.632812 626.1875 388.105469 C 624.804688 407.398438 621.242188 426.652344 615.90625 445.308594 C 604 480.546875 584.90625 512.902344 560.058594 540.273438 C 556.332031 544.042969 553.871094 547.703125 554.429688 548.105469 C 554.941406 548.8125 558.519531 545.957031 562.25 542.1875 C 575.21875 528.511719 586.554688 513.328125 596.167969 497.234375 C 596.070312 497.84375 596.324219 498.199219 596.5 498.070312 C 563.238281 555.464844 506.890625 599.132812 442.488281 617.144531 C 438.894531 618.125 436.394531 619.125 436.472656 619.605469 C 436.550781 620.085938 439.566406 619.792969 443.15625 618.8125 C 476.800781 609.570312 508.476562 593.144531 535.539062 571.441406 C 562.597656 549.738281 585.089844 522.457031 601.226562 491.964844 C 602.660156 489.851562 604.011719 487.261719 605.414062 484.363281 C 611.875 471.355469 617.167969 457.847656 621.117188 443.964844 C 625.191406 430.257812 627.921875 416.179688 629.738281 401.949219 C 633.195312 373.625 631.910156 344.6875 625.867188 316.230469 C 621.46875 296 615.09375 276.390625 606.652344 258.007812 C 598.078125 239.445312 587.566406 222.289062 575.335938 206.101562 C 563.105469 189.917969 548.882812 175.441406 533.097656 162.898438 C 517.1875 150.175781 499.894531 139.261719 481.425781 130.8125 C 452.058594 117.324219 420.171875 110.765625 387.804688 109.128906 C 374.347656 108.359375 360.261719 108.578125 346.941406 109.863281 C 340.128906 110.480469 333.699219 111.625 327.273438 112.773438 C 320.792969 114.222656 314.621094 115.726562 308.703125 117.578125 C 276.078125 128.234375 249.980469 144.9375 228.453125 164.257812 C 227.167969 165.453125 227.121094 165.757812 228.308594 165.167969 C 229.316406 164.707031 231.386719 163.480469 232.320312 162.539062 C 243.210938 153.058594 255.574219 144.125 269.261719 136.65625 C 282.648438 129.140625 297.101562 122.730469 311.1875 117.667969 C 339.648438 110.558594 369.203125 108.308594 398.152344 110.800781 C 427.230469 113.46875 455.574219 120.703125 482.449219 132.226562 C 492.5625 137.296875 502.402344 143.101562 511.359375 149.546875 C 520.492188 155.863281 528.867188 162.996094 537.070312 170.253906 C 553.019531 185.632812 567.6875 202.210938 580.742188 221.03125 Z M 580.742188 221.03125 " fill-opacity="1" fill-rule="nonzero"/></g></g></g></g></g></g></g></g></g><g clip-path="url(#987134be44)"><g clip-path="url(#6e59c168e1)"><g clip-path="url(#77803d7900)"><g mask="url(#2fae8a5f0c)"><g transform="matrix(1, 0, 0, 1, 121, 307)"><g clip-path="url(#41929cfabf)"><g clip-path="url(#15107ea6e8)"><g clip-path="url(#0692f98a26)"><g clip-path="url(#19633c5356)"><path fill="#545454" d="M 91.410156 321.425781 C 93.792969 352.136719 101.941406 382.277344 115.492188 409.730469 C 128.988281 437.398438 147.882812 462.382812 171.070312 482.828125 C 194.203125 503.488281 221.679688 519.398438 251.546875 529.394531 C 281.414062 539.390625 313.40625 543.632812 345.199219 540.628906 C 345.253906 540.417969 345.308594 540.207031 345.835938 539.890625 C 346.894531 539.261719 348.851562 538.628906 351.179688 538.316406 C 353.5625 537.792969 356.101562 537.535156 358.640625 537.277344 C 372.710938 535.878906 386.734375 532.894531 400.542969 528.960938 C 425.679688 520.238281 448.871094 506.757812 469.257812 490.097656 C 465.234375 493.578125 460.890625 496.527344 456.707031 499.742188 C 452.367188 502.695312 448.023438 505.644531 443.523438 508.332031 C 434.683594 513.96875 425.207031 518.546875 415.679688 522.4375 C 412.875 523.753906 410.175781 524.644531 408.273438 525.0625 C 406.367188 525.484375 405.257812 525.429688 405.207031 524.742188 C 405.363281 524.105469 406.476562 523.265625 408.59375 522 C 410.5 520.683594 413.304688 519.367188 416.113281 518.050781 C 441.464844 506.6875 465.875 489.246094 485.691406 468.621094 C 505.714844 448.054688 521.144531 424.304688 532.816406 402.078125 C 544.609375 372.242188 549.578125 340.015625 547.777344 308.777344 C 545.976562 277.542969 537.246094 247.03125 523.0625 220.3125 C 508.875 193.597656 489.132812 170.195312 466.207031 152.289062 C 443.28125 134.378906 417.011719 121.695312 390.207031 114.714844 C 388.09375 114.183594 385.609375 113.332031 384.660156 112.644531 C 383.285156 111.847656 383.8125 111.53125 385.71875 112.011719 C 414.164062 117.828125 442.757812 130.203125 468.273438 149.4375 C 480.898438 159.136719 492.941406 170.257812 503.445312 183.015625 C 513.949219 195.773438 523.394531 210.0625 530.988281 225.457031 C 538.578125 240.851562 544.582031 257.191406 548.308594 274.535156 C 552.089844 291.664062 554.125 309.480469 553.832031 327.605469 C 553.324219 345.679688 550.808594 363.695312 546.074219 381.601562 L 545.222656 384.980469 L 544.160156 388.308594 L 542.03125 394.960938 C 540.492188 399.292969 538.953125 403.625 537.199219 407.898438 C 533.484375 416.402344 529.765625 424.902344 525.046875 432.925781 L 521.757812 438.835938 L 518.046875 444.644531 C 515.710938 448.550781 513.007812 452.136719 510.304688 455.726562 C 526.839844 435.625 540.207031 412.027344 549.292969 385.78125 C 549.351562 382.875 550.257812 378.386719 551.589844 373.101562 C 554.359375 360.320312 556.019531 347.480469 556.78125 334.640625 C 556.621094 335.273438 556.355469 335.433594 556.089844 335.589844 C 555.246094 335.375 554.882812 330.566406 555.15625 325.019531 C 556.320312 292.730469 550.5 260.480469 538.488281 230.492188 C 538.226562 229.75 537.960938 229.011719 537.644531 228.480469 C 521.679688 191.878906 496.34375 159.429688 464.753906 135.742188 C 433.265625 111.632812 395.738281 96.335938 356.820312 91.023438 C 354.441406 90.648438 352.007812 90.484375 349.628906 90.109375 C 347.195312 89.949219 344.816406 89.574219 342.382812 89.410156 L 335.03125 89.128906 L 331.277344 88.859375 L 327.679688 88.851562 L 320.273438 88.78125 L 312.976562 89.191406 C 308.003906 89.285156 303.292969 90.121094 298.269531 90.429688 C 288.480469 91.78125 278.90625 93.191406 269.488281 95.761719 C 264.726562 96.808594 260.070312 98.332031 255.464844 99.640625 C 253.03125 100.378906 250.808594 101.164062 248.585938 101.953125 C 246.363281 102.742188 243.929688 103.476562 241.652344 104.476562 C 205.242188 118.671875 172.9375 142.4375 148.296875 172.40625 C 147.128906 174.359375 145.167969 176.785156 143.792969 177.785156 C 142.363281 179 142.042969 178.46875 143.210938 176.515625 C 142.789062 176.410156 142.101562 176.460938 142.472656 175.882812 C 158.855469 151.921875 179.566406 131.300781 204.1875 114.808594 C 228.96875 98.582031 257.8125 86.753906 290.085938 81.851562 C 312.304688 78.460938 334.835938 78.296875 357.046875 81.195312 C 334.3125 76.816406 311.941406 75.449219 291.574219 75.933594 C 262.214844 79.996094 233.480469 89.609375 207.644531 103.773438 C 181.8125 117.933594 158.5625 136.121094 138.90625 157.007812 L 140.8125 155.691406 C 139.222656 157.535156 137.421875 159.328125 135.992188 160.542969 C 134.5625 161.753906 133.660156 162.652344 133.289062 162.332031 C 132.867188 162.226562 133.082031 161.382812 133.929688 159.796875 C 134.726562 158.425781 136.101562 156.527344 137.957031 154.523438 C 146.4375 144.074219 155.921875 134.105469 166.300781 125.039062 C 176.683594 115.96875 187.910156 108.011719 199.664062 100.636719 C 211.574219 93.527344 223.960938 87.210938 236.929688 82.164062 C 249.894531 77.117188 263.496094 73.128906 277.25 70.304688 C 332.542969 58.84375 392.136719 67.789062 442.921875 94.742188 C 468.289062 108.324219 491.425781 126.285156 510.75 147.78125 C 530.070312 169.277344 545.847656 194.148438 557.070312 221.019531 C 568.292969 247.886719 574.699219 276.914062 576.132812 306.035156 C 577.777344 335.210938 573.710938 364.746094 565.46875 393.003906 C 552.171875 437.738281 525.765625 478.269531 490.863281 508.796875 C 456.117188 539.589844 412.710938 560.113281 366.84375 568.101562 C 359.964844 569.515625 353.667969 569.503906 349.175781 569.492188 C 344.730469 569.273438 341.769531 568.527344 341.824219 567.417969 C 342.09375 565.464844 353.046875 563.054688 366.273438 560.542969 C 410.078125 552.707031 451.15625 532.496094 484.152344 503.289062 C 517.363281 474.128906 542.441406 436.183594 555.785156 393.933594 C 561.582031 375.394531 565.738281 356.21875 566.984375 336.984375 C 568.445312 317.804688 567.523438 298.25 564.644531 279.324219 C 568.828125 309.140625 566.824219 339.417969 559.582031 368.152344 C 557.449219 379.296875 554.257812 390.179688 550.433594 400.898438 C 546.609375 411.617188 541.726562 422.074219 536.417969 432.421875 C 530.742188 442.449219 524.644531 452.371094 517.59375 461.605469 C 510.546875 470.839844 502.914062 479.703125 494.546875 487.929688 C 474.414062 508.023438 451.328125 523.777344 426.664062 535.089844 C 401.996094 546.402344 375.644531 553.695312 348.667969 556.332031 C 321.898438 559.027344 294.609375 557.542969 267.75 551.675781 C 254.320312 548.742188 241.15625 544.75 228.257812 539.703125 C 215.363281 534.65625 202.570312 528.289062 190.417969 521.183594 C 166.535156 507.078125 146.515625 490.125 129.300781 471.855469 C 120.855469 462.539062 113.148438 452.957031 106.023438 442.847656 C 99.109375 432.792969 92.78125 422.210938 87.402344 411.417969 C 81.8125 400.574219 77.230469 389.308594 73.386719 377.777344 C 69.546875 366.25 66.550781 354.035156 64.242188 341.769531 C 62.199219 329.347656 60.898438 316.660156 60.8125 303.605469 C 60.730469 290.554688 61.597656 277.289062 63.679688 263.660156 C 64.429688 258.90625 65.972656 253.675781 67.03125 252.144531 C 67.457031 251.351562 67.878906 251.460938 68.089844 252.410156 C 68.300781 253.363281 68.085938 255.105469 67.710938 257.484375 C 59.113281 309.46875 67.175781 360.484375 88.101562 405.078125 C 93.160156 416.238281 99.4375 427.03125 106.296875 437.300781 C 109.671875 442.644531 113.421875 447.40625 117.0625 452.59375 C 118.910156 455.082031 121.019531 457.410156 122.867188 459.898438 C 124.714844 462.386719 127.09375 464.558594 128.941406 467.046875 C 137.386719 476.363281 146.363281 485.367188 156.242188 493.472656 C 166.121094 501.578125 176.792969 509.210938 187.941406 515.839844 C 211.984375 530.210938 237.777344 540.304688 264.320312 546.542969 C 290.914062 552.570312 318.097656 554.472656 345.078125 551.835938 C 372.054688 549.195312 398.566406 542.167969 423.496094 530.699219 C 448.425781 519.226562 471.511719 503.472656 491.539062 483.800781 C 496.941406 478.421875 502.132812 472.988281 506.957031 467.238281 C 498.582031 476.363281 489.683594 484.90625 480.152344 492.394531 C 470.621094 499.878906 460.613281 506.570312 450.339844 512.519531 C 410.84375 537.171875 364.757812 549.601562 318.953125 548.398438 C 273.152344 547.195312 228.003906 532.675781 189.859375 506.4375 C 175.121094 496.207031 161.386719 484.660156 149.347656 471.738281 C 137.097656 458.765625 126.542969 444.421875 117.523438 429.34375 C 115.097656 425.585938 113.199219 421.511719 111.035156 417.597656 C 108.875 413.679688 107.1875 409.660156 105.289062 405.589844 C 101.707031 397.496094 98.441406 389.03125 95.863281 380.519531 C 90.707031 363.492188 87.296875 345.78125 86.269531 327.546875 C 86.066406 323 85.859375 318.457031 86.5 315.019531 C 86.929688 311.535156 87.566406 309 88.46875 308.101562 C 89.105469 307.363281 89.949219 308.476562 90.472656 310.855469 C 90.789062 313.179688 91.203125 316.878906 91.410156 321.425781 Z M 470.109375 125.183594 C 483.6875 134.671875 496.207031 145.691406 507.503906 157.972656 C 486.070312 133.25 459.5 112.847656 430.0625 98.46875 C 400.625 84.085938 368.109375 75.667969 335.214844 74.121094 C 359.171875 76.335938 383.226562 81.722656 406.273438 90.226562 C 429.058594 98.886719 450.828125 110.664062 470.109375 125.183594 Z M 470.109375 125.183594 " fill-opacity="1" fill-rule="nonzero"/></g></g></g><g clip-path="url(#24e75e72f8)"><g clip-path="url(#ad0bac7373)"><g clip-path="url(#93323b30e7)"><path fill="#545454" d="M 526.03125 150.507812 C 546.621094 173.222656 563.609375 200.421875 574.929688 230.460938 C 586.042969 260.449219 591.914062 293.386719 591.015625 326.414062 C 590.117188 359.441406 582.867188 392.667969 569.4375 423.660156 C 556.007812 454.65625 536.230469 483.152344 511.863281 506.675781 C 472.238281 545.226562 422.003906 569.644531 369.574219 578.679688 C 366.296875 579.199219 362.960938 579.933594 359.734375 580.242188 L 349.789062 581.332031 C 343.125 581.902344 336.460938 582.46875 329.953125 582.402344 C 323.339844 582.757812 316.679688 582.429688 310.015625 582.097656 C 303.402344 581.554688 296.738281 581.222656 290.023438 580.207031 C 283.464844 579.453125 276.804688 578.222656 270.140625 576.996094 C 266.917969 576.40625 263.53125 575.554688 260.359375 574.753906 C 257.136719 574.167969 253.804688 573.105469 250.632812 572.304688 C 247.511719 571.292969 244.078125 570.652344 240.957031 569.640625 C 237.839844 568.632812 234.507812 567.566406 231.390625 566.558594 C 228.269531 565.546875 224.992188 564.273438 221.925781 563.050781 C 220.289062 562.414062 218.863281 561.828125 217.222656 561.191406 L 212.570312 559.121094 C 196.132812 552.058594 180.332031 543.359375 165.910156 533.65625 C 151.273438 523.902344 138.015625 513.148438 125.816406 501.761719 C 123.808594 499.90625 122.277344 498.847656 122.699219 499.851562 C 123.277344 501.121094 125.179688 503.398438 127.554688 505.570312 C 153.011719 529.507812 182.757812 548.914062 215.316406 562.507812 C 247.875 576.105469 282.878906 583.574219 318.632812 584.492188 C 354.171875 585.359375 390.148438 579.144531 423.597656 566 C 456.464844 553.382812 487.277344 533.734375 512.761719 508.472656 C 537.234375 484.53125 557.0625 455.820312 570.386719 424.351562 C 583.925781 392.933594 591.28125 359.285156 592.128906 325.570312 C 592.972656 291.855469 587 258.441406 575.09375 228.03125 C 563.402344 197.671875 545.832031 170.101562 524.605469 147.226562 C 523.550781 146.0625 522.546875 145.585938 522.808594 146.324219 C 523.441406 147.382812 524.972656 149.34375 526.03125 150.507812 Z M 526.03125 150.507812 " fill-opacity="1" fill-rule="nonzero"/></g></g></g><g clip-path="url(#3a72a78ba5)"><g clip-path="url(#c72778d0c8)"><g clip-path="url(#59fd4badc9)"><path fill="#545454" d="M 387.316406 71.746094 C 406.296875 76.75 424.691406 84.082031 442.128906 93.417969 C 459.355469 102.703125 475.578125 114.203125 490.3125 127.128906 C 505.046875 140.054688 517.984375 154.773438 529.542969 170.492188 C 540.886719 186.15625 550.539062 203.195312 558.445312 220.914062 C 571.980469 255.558594 578.164062 292.617188 576.730469 329.554688 C 576.296875 334.839844 576.765625 339.226562 577.453125 339.175781 C 578.300781 339.386719 579.207031 334.898438 579.636719 329.613281 C 580.777344 310.800781 579.699219 291.878906 576.714844 273.378906 C 577.03125 273.90625 577.453125 274.011719 577.507812 273.800781 C 588.933594 339.144531 573.851562 408.820312 536.105469 464.023438 C 533.984375 467.082031 532.710938 469.457031 533.078125 469.777344 C 533.449219 470.09375 535.570312 467.933594 537.6875 464.871094 C 557.515625 436.164062 571.214844 403.214844 577.988281 369.191406 C 584.757812 335.171875 584.445312 299.816406 577.203125 266.085938 C 576.941406 263.546875 576.3125 260.691406 575.523438 257.574219 C 572.105469 243.457031 567.476562 229.707031 561.574219 216.535156 C 555.882812 203.417969 548.917969 190.878906 541.164062 178.8125 C 525.597656 154.894531 506.011719 133.554688 483.085938 115.644531 C 466.707031 102.980469 449.21875 92.058594 430.933594 83.40625 C 412.433594 74.703125 393.351562 68.320312 373.578125 63.789062 C 353.804688 59.257812 333.601562 57.3125 313.449219 57.851562 C 293.085938 58.339844 272.824219 61.097656 253.246094 66.503906 C 222.078125 75.050781 193.4375 90.53125 167.597656 110.085938 C 156.792969 118.148438 146.148438 127.375 136.769531 136.921875 C 131.949219 141.773438 127.761719 146.785156 123.574219 151.796875 C 119.546875 157.074219 115.785156 162.191406 112.445312 167.417969 C 94.308594 196.550781 85.058594 226.128906 80.992188 254.761719 C 80.777344 256.507812 80.933594 256.773438 81.464844 255.558594 C 81.945312 254.554688 82.742188 252.28125 82.847656 250.960938 C 85.09375 236.699219 88.820312 221.90625 94.5 207.386719 C 99.917969 193.023438 106.871094 178.820312 114.402344 165.890625 C 131.628906 142.140625 152.820312 121.417969 176.597656 104.710938 C 200.582031 88.0625 226.941406 75.378906 254.9375 66.929688 C 265.941406 64.308594 277.210938 62.429688 288.214844 61.605469 C 299.269531 60.570312 310.269531 60.648438 321.21875 60.933594 C 343.324219 62.457031 365.21875 65.726562 387.316406 71.746094 Z M 387.316406 71.746094 " fill-opacity="1" fill-rule="nonzero"/></g></g></g></g></g></g></g></g></g><g clip-path="url(#903d3bf9b3)"><g clip-path="url(#f6e83d8a5f)"><g clip-path="url(#da34dcfd69)"><g mask="url(#380666b3bb)"><g transform="matrix(1, 0, 0, 1, 147, 342)"><g clip-path="url(#c0561394c1)"><g clip-path="url(#853e9e0583)"><g clip-path="url(#b45556d0f6)"><g clip-path="url(#d728ba0f78)"><path fill="#545454" d="M 533.996094 211.035156 C 515.523438 186.386719 492.488281 165.3125 466.332031 149.394531 C 440.109375 133.273438 410.765625 122.3125 380.230469 117.476562 C 349.628906 112.4375 317.902344 113.734375 287.332031 121.304688 C 256.757812 128.875 227.476562 142.445312 202.246094 162.019531 C 202.316406 162.226562 202.382812 162.433594 202.105469 162.984375 C 201.550781 164.085938 200.234375 165.667969 198.4375 167.179688 C 196.707031 168.898438 194.703125 170.476562 192.699219 172.054688 C 181.570312 180.777344 171.332031 190.8125 161.78125 201.539062 C 145.234375 222.375 132.886719 246.1875 124.601562 271.179688 C 126.136719 266.082031 128.21875 261.265625 130.027344 256.308594 C 132.109375 251.488281 134.195312 246.671875 136.554688 241.992188 C 140.996094 232.496094 146.542969 223.550781 152.5 215.160156 C 154.160156 212.542969 155.960938 210.34375 157.34375 208.96875 C 158.726562 207.59375 159.695312 207.046875 160.109375 207.597656 C 160.3125 208.21875 159.824219 209.527344 158.714844 211.730469 C 157.8125 213.863281 156.148438 216.476562 154.484375 219.089844 C 139.171875 242.273438 127.914062 270.085938 122.242188 298.117188 C 116.363281 326.214844 116.066406 354.535156 118.125 379.554688 C 124.164062 411.0625 137.246094 440.929688 155.507812 466.335938 C 173.773438 491.742188 197.496094 512.820312 223.792969 527.769531 C 250.089844 542.722656 279.300781 551.890625 308.253906 554.722656 C 337.207031 557.550781 366.183594 554.179688 392.550781 545.703125 C 394.621094 545.019531 397.175781 544.40625 398.347656 544.480469 C 399.933594 544.414062 399.65625 544.964844 397.792969 545.578125 C 370.660156 555.914062 339.886719 560.796875 308.035156 558.234375 C 292.179688 556.816406 276.054688 553.882812 260.347656 548.742188 C 244.640625 543.601562 229.007812 536.605469 214.347656 527.675781 C 199.6875 518.75 185.859375 508.171875 173.414062 495.53125 C 161.042969 483.09375 149.777344 469.148438 140.308594 453.6875 C 131.046875 438.160156 123.511719 421.601562 117.914062 403.949219 L 116.820312 400.636719 L 114.160156 390.5 C 113.140625 386.019531 112.121094 381.539062 111.308594 376.988281 C 109.886719 367.820312 108.46875 358.652344 108.152344 349.347656 L 107.761719 342.59375 L 107.78125 335.703125 C 107.65625 331.152344 108.015625 326.675781 108.375 322.199219 C 105.191406 348.03125 106.554688 375.113281 112.953125 402.144531 C 114.460938 404.628906 116.105469 408.902344 117.8125 414.078125 C 122.324219 426.355469 127.804688 438.082031 134.046875 449.328125 C 133.839844 448.710938 133.980469 448.433594 134.117188 448.160156 C 134.945312 447.886719 137.832031 451.75 140.574219 456.582031 C 156.898438 484.460938 179.097656 508.566406 205.3125 527.445312 C 205.933594 527.929688 206.550781 528.414062 207.101562 528.691406 C 240.203125 551.035156 278.984375 564.847656 318.351562 567.910156 C 357.851562 571.386719 397.734375 564.183594 433.4375 547.808594 C 435.648438 546.847656 437.789062 545.683594 440 544.722656 C 442.140625 543.558594 444.351562 542.597656 446.492188 541.433594 L 452.847656 537.726562 L 456.164062 535.945312 L 459.203125 534.023438 L 465.492188 530.109375 L 471.433594 525.855469 C 475.582031 523.109375 479.105469 519.878906 483.183594 516.925781 C 490.722656 510.535156 498.050781 504.214844 504.625 496.996094 C 508.082031 493.558594 511.199219 489.777344 514.382812 486.203125 C 516.042969 484.277344 517.496094 482.421875 518.949219 480.566406 C 520.40625 478.707031 522.066406 476.78125 523.453125 474.71875 C 546.582031 443.21875 561.109375 405.839844 565.851562 367.332031 C 565.789062 365.058594 566.144531 361.957031 566.769531 360.375 C 567.328125 358.582031 567.878906 358.859375 567.941406 361.132812 C 568.355469 360.996094 568.90625 360.585938 568.90625 361.273438 C 567.917969 390.28125 561.484375 418.792969 549.539062 445.914062 C 537.316406 472.894531 519.308594 498.34375 494.691406 519.78125 C 477.75 534.550781 458.816406 546.769531 438.515625 556.226562 C 460.054688 547.738281 479.675781 536.898438 496.605469 525.574219 C 519.214844 506.40625 538.320312 482.886719 552.539062 457.082031 C 566.753906 431.28125 576.632812 403.464844 582.03125 375.296875 L 581.128906 377.429688 C 581.480469 375.019531 582.039062 372.539062 582.597656 370.75 C 583.15625 368.960938 583.433594 367.71875 583.917969 367.789062 C 584.332031 367.652344 584.605469 368.480469 584.738281 370.273438 C 584.800781 371.859375 584.65625 374.199219 584.164062 376.886719 C 582.605469 390.25 579.945312 403.75 576.039062 416.96875 C 572.136719 430.191406 566.925781 442.925781 560.957031 455.453125 C 554.710938 467.839844 547.640625 479.8125 539.398438 491.023438 C 531.15625 502.234375 521.816406 512.890625 511.714844 522.648438 C 471.183594 561.960938 416.078125 586.351562 358.757812 590.820312 C 330.0625 592.953125 300.902344 590.191406 273.066406 582.402344 C 245.230469 574.613281 218.582031 562.074219 194.707031 545.40625 C 170.828125 528.738281 149.863281 507.667969 133.042969 483.851562 C 116.015625 460.101562 103.617188 432.988281 95.429688 404.71875 C 82.675781 359.824219 83.238281 311.453125 96.339844 266.972656 C 109.167969 222.351562 134.8125 181.761719 169.25 150.429688 C 174.300781 145.546875 179.621094 142.1875 183.421875 139.785156 C 187.289062 137.589844 190.1875 136.632812 190.738281 137.597656 C 191.558594 139.390625 183.605469 147.296875 173.78125 156.503906 C 141.003906 186.601562 117.160156 225.679688 104.957031 268.027344 C 92.550781 310.441406 91.71875 355.921875 103.101562 398.742188 C 108.148438 417.496094 114.917969 435.914062 124.171875 452.820312 C 133.222656 469.792969 144.484375 485.808594 157.058594 500.242188 C 137.542969 477.316406 123.007812 450.679688 113.71875 422.542969 C 109.542969 411.988281 106.40625 401.09375 103.886719 389.992188 C 101.371094 378.890625 99.890625 367.449219 98.824219 355.871094 C 98.238281 344.359375 98.066406 332.714844 99.070312 321.140625 C 100.070312 309.566406 101.761719 297.996094 104.417969 286.5625 C 110.640625 258.808594 121.6875 233.132812 136.445312 210.363281 C 151.207031 187.59375 169.542969 167.3125 190.902344 150.621094 C 212.058594 134 235.890625 120.625 261.710938 111.179688 C 274.621094 106.457031 287.871094 102.769531 301.464844 100.117188 C 315.058594 97.464844 329.269531 95.988281 343.339844 95.472656 C 371.0625 94.578125 397.050781 98.15625 421.375 104.351562 C 433.5 107.691406 445.140625 111.648438 456.574219 116.363281 C 467.800781 121.148438 478.816406 126.6875 489.140625 132.917969 C 499.671875 139.074219 509.582031 146.128906 519.003906 153.804688 C 528.425781 161.476562 537.503906 170.179688 546.027344 179.300781 C 554.410156 188.691406 562.308594 198.703125 569.378906 209.679688 C 576.445312 220.652344 582.824219 232.3125 588.367188 244.9375 C 590.285156 249.355469 591.785156 254.59375 591.710938 256.453125 C 591.777344 257.351562 591.363281 257.488281 590.675781 256.796875 C 589.988281 256.105469 589.234375 254.519531 588.277344 252.3125 C 567.671875 203.816406 533.519531 165.070312 491.949219 138.644531 C 481.695312 131.933594 470.609375 126.183594 459.316406 121.195312 C 453.601562 118.492188 447.886719 116.480469 442.03125 114.054688 C 439.136719 112.941406 436.105469 112.109375 433.214844 111 C 430.320312 109.886719 427.148438 109.328125 424.257812 108.21875 C 412.132812 104.878906 399.726562 102.09375 387.042969 100.542969 C 374.359375 98.996094 361.257812 98.273438 348.292969 98.652344 C 320.292969 99.410156 293.105469 104.714844 267.355469 113.675781 C 241.675781 122.84375 217.707031 135.804688 196.34375 152.496094 C 174.984375 169.1875 156.371094 189.328125 141.472656 212.375 C 126.574219 235.421875 115.53125 261.09375 109.171875 288.433594 C 107.492188 295.871094 106.019531 303.242188 105.03125 310.683594 C 107.207031 298.492188 110.140625 286.507812 114.175781 275.078125 C 118.210938 263.652344 123.074219 252.636719 128.554688 242.109375 C 148.683594 200.128906 180.929688 164.929688 220.238281 141.394531 C 259.550781 117.859375 305.445312 105.917969 351.714844 107.621094 C 369.640625 108.355469 387.425781 110.742188 404.511719 115.199219 C 421.808594 119.582031 438.40625 126.035156 454.105469 133.929688 C 458.167969 135.800781 461.953125 138.222656 465.878906 140.367188 C 469.800781 142.515625 473.378906 145.003906 477.164062 147.425781 C 484.527344 152.335938 491.820312 157.730469 498.5625 163.535156 C 512.042969 175.148438 524.414062 188.269531 535.054688 203.113281 C 537.664062 206.839844 540.273438 210.570312 541.574219 213.808594 C 543.082031 216.984375 543.902344 219.46875 543.621094 220.707031 C 543.480469 221.671875 542.171875 221.183594 540.453125 219.457031 C 538.941406 217.664062 536.605469 214.761719 533.996094 211.035156 Z M 319.484375 579.695312 C 302.9375 578.964844 286.464844 576.371094 270.339844 572.058594 C 301.6875 581.441406 335.054688 584.421875 367.617188 580.785156 C 400.175781 577.144531 432.136719 566.820312 460.738281 550.496094 C 439.324219 561.464844 416.128906 569.8125 392.113281 574.988281 C 368.238281 579.890625 343.546875 581.617188 319.484375 579.695312 Z M 319.484375 579.695312 " fill-opacity="1" fill-rule="nonzero"/></g></g></g><g clip-path="url(#8c6e37a6ed)"><g clip-path="url(#2f292d9b43)"><g clip-path="url(#bc66c0be30)"><path fill="#545454" d="M 258.707031 588.292969 C 229.148438 580.152344 200.226562 566.296875 174.566406 547.007812 C 149.109375 527.648438 126.5 502.988281 109.554688 474.625 C 92.609375 446.261719 80.917969 414.328125 75.644531 380.960938 C 70.367188 347.597656 71.785156 312.941406 79.75 280.023438 C 92.539062 226.238281 121.855469 178.695312 161.273438 142.964844 C 163.765625 140.765625 166.183594 138.363281 168.742188 136.371094 L 176.554688 130.117188 C 181.878906 126.066406 187.199219 122.015625 192.726562 118.582031 C 198.117188 114.738281 203.921875 111.445312 209.722656 108.152344 C 215.59375 105.066406 221.398438 101.773438 227.613281 99.035156 C 233.550781 96.15625 239.835938 93.621094 246.117188 91.089844 C 249.15625 89.855469 252.46875 88.761719 255.578125 87.734375 C 258.613281 86.503906 261.996094 85.617188 265.101562 84.589844 C 268.277344 83.773438 271.523438 82.46875 274.699219 81.652344 C 277.871094 80.832031 281.253906 79.945312 284.429688 79.128906 C 287.601562 78.308594 291.054688 77.628906 294.296875 77.015625 C 296.023438 76.675781 297.539062 76.402344 299.265625 76.0625 L 304.300781 75.320312 C 321.964844 72.46875 339.964844 71.34375 357.34375 71.800781 C 374.925781 72.191406 391.882812 74.164062 408.285156 77.238281 C 410.972656 77.726562 412.835938 77.800781 411.941406 77.179688 C 410.773438 76.417969 407.945312 75.515625 404.777344 74.957031 C 370.453125 68.390625 334.941406 67.957031 300.167969 73.929688 C 265.394531 79.90625 231.839844 92.359375 201.164062 110.75 C 170.695312 129.070312 143.65625 153.601562 122.464844 182.625 C 101.480469 210.894531 86 244 78.03125 278.984375 C 70.203125 312.316406 68.851562 347.179688 74.472656 380.890625 C 79.882812 414.667969 91.710938 447.015625 109.070312 475.933594 C 126.425781 504.851562 149.378906 529.855469 175.730469 549.148438 C 201.875 568.507812 231.484375 582.363281 261.664062 590.296875 C 263.179688 590.714844 264.285156 590.578125 263.664062 590.097656 C 262.5625 589.542969 260.222656 588.710938 258.707031 588.292969 Z M 258.707031 588.292969 " fill-opacity="1" fill-rule="nonzero"/></g></g></g><g clip-path="url(#0d9cfa659b)"><g clip-path="url(#78302f1ee3)"><g clip-path="url(#116579f162)"><path fill="#545454" d="M 202.953125 112.683594 C 186.785156 122.839844 171.710938 134.929688 158.015625 148.402344 C 144.527344 161.804688 132.207031 176.65625 121.882812 192.683594 C 111.28125 208.574219 102.261719 225.78125 95.242188 243.472656 C 88.082031 261.4375 82.785156 280.167969 79.277344 299.453125 C 75.351562 320.253906 74.523438 341.40625 76.390625 362.359375 C 78.257812 383.3125 82.671875 404.339844 90.609375 424.894531 C 95.601562 438.621094 102.042969 451.175781 109.039062 463.324219 C 115.964844 475.261719 123.792969 486.445312 132.105469 497.007812 C 136.15625 502.324219 140.828125 507.4375 145.226562 512.410156 C 147.632812 514.828125 149.832031 517.3125 152.238281 519.730469 C 154.644531 522.148438 157.050781 524.566406 159.664062 526.917969 C 169.632812 536.246094 180.15625 545.160156 191.855469 553.460938 C 193.367188 554.566406 195.019531 555.398438 195.710938 555.398438 C 195.847656 555.125 194.886719 554.292969 193.371094 553.1875 C 168.535156 535.003906 146.878906 513.929688 128.886719 490.042969 C 111.097656 466.085938 97.117188 439.039062 87.96875 409.246094 C 83.875 395.453125 81.019531 381.25 79.273438 366.914062 C 77.660156 352.992188 77.292969 338.65625 78.09375 324.394531 C 79.703125 295.871094 86.339844 267.980469 96.765625 241.820312 C 118.304688 189.507812 155.820312 144.535156 203.914062 113.511719 C 205.988281 112.140625 207.09375 111.316406 206.957031 110.902344 C 206.679688 110.765625 204.886719 111.585938 202.953125 112.683594 Z M 202.953125 112.683594 " fill-opacity="1" fill-rule="nonzero"/></g></g></g></g></g></g></g></g></g></svg>