<svg xmlns="http://www.w3.org/2000/svg" xmlns:xlink="http://www.w3.org/1999/xlink" width="500" zoomAndPan="magnify" viewBox="0 0 375 374.999991" height="500" preserveAspectRatio="xMidYMid meet" version="1.0"><defs><clipPath id="983845fa9b"><path d="M 7.886719 78 L 134 78 L 134 296 L 7.886719 296 Z M 7.886719 78 " clip-rule="nonzero"/></clipPath><clipPath id="b9b0a8a6de"><path d="M 362.648438 154.011719 L 191.527344 154.011719 L 191.527344 224.914062 L 290.027344 224.914062 C 280.84375 269.957031 242.445312 295.816406 191.527344 295.816406 C 131.425781 295.816406 83.011719 247.4375 83.011719 187.378906 C 83.011719 127.320312 131.425781 78.9375 191.527344 78.9375 C 217.40625 78.9375 240.777344 88.113281 259.140625 103.128906 L 312.5625 49.742188 C 280.007812 21.382812 238.273438 3.863281 191.527344 3.863281 C 89.691406 3.863281 7.886719 85.613281 7.886719 187.378906 C 7.886719 289.144531 89.691406 370.890625 191.527344 370.890625 C 283.347656 370.890625 366.820312 304.160156 366.820312 187.378906 C 366.820312 176.535156 365.152344 164.855469 362.648438 154.011719 Z M 362.648438 154.011719 " clip-rule="nonzero"/></clipPath><clipPath id="1f1ba3e76b"><path d="M 7.886719 3 L 366.820312 3 L 366.820312 188 L 7.886719 188 Z M 7.886719 3 " clip-rule="nonzero"/></clipPath><clipPath id="e301f95724"><path d="M 362.648438 154.011719 L 191.527344 154.011719 L 191.527344 224.914062 L 290.027344 224.914062 C 280.84375 269.957031 242.445312 295.816406 191.527344 295.816406 C 131.425781 295.816406 83.011719 247.4375 83.011719 187.378906 C 83.011719 127.320312 131.425781 78.9375 191.527344 78.9375 C 217.40625 78.9375 240.777344 88.113281 259.140625 103.128906 L 312.5625 49.742188 C 280.007812 21.382812 238.273438 3.863281 191.527344 3.863281 C 89.691406 3.863281 7.886719 85.613281 7.886719 187.378906 C 7.886719 289.144531 89.691406 370.890625 191.527344 370.890625 C 283.347656 370.890625 366.820312 304.160156 366.820312 187.378906 C 366.820312 176.535156 365.152344 164.855469 362.648438 154.011719 Z M 362.648438 154.011719 " clip-rule="nonzero"/></clipPath><clipPath id="0f4c8155a8"><path d="M 7.886719 3 L 366.820312 3 L 366.820312 370.890625 L 7.886719 370.890625 Z M 7.886719 3 " clip-rule="nonzero"/></clipPath><clipPath id="f733773e47"><path d="M 362.648438 154.011719 L 191.527344 154.011719 L 191.527344 224.914062 L 290.027344 224.914062 C 280.84375 269.957031 242.445312 295.816406 191.527344 295.816406 C 131.425781 295.816406 83.011719 247.4375 83.011719 187.378906 C 83.011719 127.320312 131.425781 78.9375 191.527344 78.9375 C 217.40625 78.9375 240.777344 88.113281 259.140625 103.128906 L 312.5625 49.742188 C 280.007812 21.382812 238.273438 3.863281 191.527344 3.863281 C 89.691406 3.863281 7.886719 85.613281 7.886719 187.378906 C 7.886719 289.144531 89.691406 370.890625 191.527344 370.890625 C 283.347656 370.890625 366.820312 304.160156 366.820312 187.378906 C 366.820312 176.535156 365.152344 164.855469 362.648438 154.011719 Z M 362.648438 154.011719 " clip-rule="nonzero"/></clipPath><clipPath id="404f51fd17"><path d="M 99 78 L 366.820312 78 L 366.820312 370.890625 L 99 370.890625 Z M 99 78 " clip-rule="nonzero"/></clipPath><clipPath id="672203234f"><path d="M 362.648438 154.011719 L 191.527344 154.011719 L 191.527344 224.914062 L 290.027344 224.914062 C 280.84375 269.957031 242.445312 295.816406 191.527344 295.816406 C 131.425781 295.816406 83.011719 247.4375 83.011719 187.378906 C 83.011719 127.320312 131.425781 78.9375 191.527344 78.9375 C 217.40625 78.9375 240.777344 88.113281 259.140625 103.128906 L 312.5625 49.742188 C 280.007812 21.382812 238.273438 3.863281 191.527344 3.863281 C 89.691406 3.863281 7.886719 85.613281 7.886719 187.378906 C 7.886719 289.144531 89.691406 370.890625 191.527344 370.890625 C 283.347656 370.890625 366.820312 304.160156 366.820312 187.378906 C 366.820312 176.535156 365.152344 164.855469 362.648438 154.011719 Z M 362.648438 154.011719 " clip-rule="nonzero"/></clipPath></defs><g clip-path="url(#983845fa9b)"><g clip-path="url(#b9b0a8a6de)"><path fill="#fbbc05" d="M -8.808594 295.816406 L -8.808594 78.9375 L 133.097656 187.378906 Z M -8.808594 295.816406 " fill-opacity="1" fill-rule="nonzero"/></g></g><g clip-path="url(#1f1ba3e76b)"><g clip-path="url(#e301f95724)"><path fill="#ea4335" d="M -8.808594 78.9375 L 133.097656 187.378906 L 191.527344 136.496094 L 391.863281 103.964844 L 391.863281 -12.816406 L -8.808594 -12.816406 Z M -8.808594 78.9375 " fill-opacity="1" fill-rule="nonzero"/></g></g><g clip-path="url(#0f4c8155a8)"><g clip-path="url(#f733773e47)"><path fill="#34a853" d="M -8.808594 295.816406 L 241.613281 103.964844 L 307.554688 112.304688 L 391.863281 -12.816406 L 391.863281 387.574219 L -8.808594 387.574219 Z M -8.808594 295.816406 " fill-opacity="1" fill-rule="nonzero"/></g></g><g clip-path="url(#404f51fd17)"><g clip-path="url(#672203234f)"><path fill="#4285f4" d="M 391.863281 387.574219 L 133.097656 187.378906 L 99.707031 162.355469 L 391.863281 78.9375 Z M 391.863281 387.574219 " fill-opacity="1" fill-rule="nonzero"/></g></g></svg>